PathFileType	4	(X/Y/Z)	E:\Qualisys_Data\Carbon_Farble_Plate\Data\Amateur_Runner\S14\T1\S14T1V11_c3d.trc
DataRate	CameraRate	NumFrames	NumMarkers	Units	OrigDataRate	OrigDataStartFrame	OrigNumFrames
200.000000	200.000000	5	39	mm	200.000000	130	349
Frame#	Time	LSHO			RSHO			LICST			RICST			LASIS			LHEEL			RASIS			LTROC			RTROC			SACR			LTH1			LSK4			LTH2			LTH3			RHM5			LSK2			LTH4			RTH1			LTOE			RTH2			RTH3			RTH4			LLEP			RLEP			LSK1			LSK3			RSK1			LHM5			RSK2			LFT1			RSK3			RSK4			LLME			RLME			RTOE			RHEEL			RFT1			RFT2			LFT2			
		X1	Y1	Z1	X2	Y2	Z2	X3	Y3	Z3	X4	Y4	Z4	X5	Y5	Z5	X6	Y6	Z6	X7	Y7	Z7	X8	Y8	Z8	X9	Y9	Z9	X10	Y10	Z10	X11	Y11	Z11	X12	Y12	Z12	X13	Y13	Z13	X14	Y14	Z14	X15	Y15	Z15	X16	Y16	Z16	X17	Y17	Z17	X18	Y18	Z18	X19	Y19	Z19	X20	Y20	Z20	X21	Y21	Z21	X22	Y22	Z22	X23	Y23	Z23	X24	Y24	Z24	X25	Y25	Z25	X26	Y26	Z26	X27	Y27	Z27	X28	Y28	Z28	X29	Y29	Z29	X30	Y30	Z30	X31	Y31	Z31	X32	Y32	Z32	X33	Y33	Z33	X34	Y34	Z34	X35	Y35	Z35	X36	Y36	Z36	X37	Y37	Z37	X38	Y38	Z38	X39	Y39	Z39	

131	0.65	-547.9048461914062	1366.233276367188	-562.1351928710938	-523.1718139648438	1385.756469726562	-250.5669403076172	-614.5042724609375	945.4486083984376	-511.6627197265625	-580.03564453125	937.0169677734376	-230.2457275390625	-568.3379516601562	897.4015502929688	-487.282958984375	-848.1709594726562	108.9797286987305	-355.7232666015625	-555.9564819335938	894.2317504882812	-251.6738739013672	-715.1605834960938	826.4132690429688	-516.02294921875	-699.591796875	839.5103149414062	-205.5756378173828	-733.6336059570312	954.4276733398438	-367.1257629394531	-585.7185668945312	607.3975830078125	-517.25439453125	-721.2152099609375	284.3586120605469	-450.4394836425781	-659.8115844726562	594.9393920898438	-496.0421752929688	-559.3861083984375	514.6554565429688	-486.4330139160156	-870.4100952148438	164.0558013916016	-179.8844146728516	-671.6417236328125	366.43896484375	-475.8274841308594	-636.3992309570312	502.8558349609375	-471.9927062988281	-513.1582641601562	629.614990234375	-188.109619140625	-598.4161376953125	62.01754379272461	-400.0373229980469	-589.8580322265625	616.267333984375	-177.8209381103516	-491.1091918945312	531.4320068359375	-204.927734375	-573.2611694335938	514.529052734375	-186.3171539306641	-578.305419921875	440.99658203125	-473.6020202636719	-548.0309448242188	457.3714904785156	-191.6857757568359	-599.4677734375	327.6659545898438	-463.8197326660156	-652.9223022460938	243.2566375732422	-442.1914978027344	-623.445556640625	376.5122985839844	-188.6699371337891	-670.0838623046875	59.59255218505859	-456.7020568847656	-663.5223388671875	451.8246765136719	-196.3159484863281	-839.13232421875	80.35128784179688	-330.5316162109375	-717.1966552734375	333.6388244628906	-204.0929870605469	-747.5222778320312	407.0976257324219	-209.2332611083984	-782.25537109375	122.8143615722656	-419.5791931152344	-887.626708984375	299.6935729980469	-226.6382293701172	-819.3486328125	101.3496551513672	-231.9500732421875	-938.8184204101562	325.2726440429688	-287.0920104980469	-953.7139282226562	293.6925048828125	-313.6183471679688	-958.2598266601562	315.2477111816406	-259.3331298828125	-854.2484741210938	82.2407455444336	-383.7784423828125
132	0.655	-529.3268432617188	1369.782958984375	-561.4212036132812	-510.0147094726562	1388.78857421875	-249.7548065185547	-599.1616821289062	947.6781005859376	-511.5000610351562	-565.8873291015625	939.467041015625	-230.4077758789062	-552.7265014648438	899.7840576171875	-487.3045654296875	-847.56103515625	110.8806915283203	-354.4367065429688	-541.9176635742188	896.802734375	-251.63720703125	-700.1873779296875	829.6259765625	-516.620849609375	-685.2871704101562	843.1345825195312	-205.5767822265625	-718.592529296875	957.2223510742188	-368.1481628417969	-576.9080200195312	608.1259765625	-517.0657958984375	-718.349609375	286.3133850097656	-450.1234436035156	-651.303466796875	597.4969482421875	-496.2554321289062	-552.821533203125	514.6275634765625	-486.1181335449219	-838.6268920898438	160.1464996337891	-180.1576538085938	-668.4846801757812	368.4454040527344	-475.0003356933594	-630.3645629882812	505.158203125	-471.7454833984375	-495.0755615234375	635.2469482421875	-188.6784210205078	-598.2470703125	61.69815063476562	-400.2958374023438	-571.5036010742188	620.0167236328125	-178.2180480957031	-470.4916076660156	537.6925659179688	-205.5639953613281	-552.57373046875	518.7232666015625	-187.2959289550781	-573.8862915039062	441.7899475097656	-473.4520568847656	-525.4428100585938	462.4327392578125	-192.9272613525391	-596.2603149414062	328.4099731445312	-463.7719116210938	-650.8953247070312	244.1666564941406	-442.1844482421875	-598.917724609375	379.2992248535156	-190.0279388427734	-669.7203369140625	59.74943923950195	-456.6548156738281	-640.9766235351562	453.5162963867188	-197.5482788085938	-838.3244018554688	82.15492248535156	-330.3599548339844	-691.2833251953125	333.7672119140625	-205.1156005859375	-723.6978759765625	406.512451171875	-210.0320129394531	-781.8619995117188	125.1160354614258	-418.7768859863281	-860.9154052734375	295.4982604980469	-227.0245819091797	-785.4920654296875	99.3420639038086	-231.97802734375	-913.2393798828124	318.1494140625	-287.7822875976562	-927.2388305664062	286.2031860351562	-314.9153747558594	-932.1666259765624	307.3597412109375	-259.8695068359375	-853.1110229492188	84.27498626708984	-383.0605163574219
133	0.66	-511.0302124023438	1373.278564453125	-560.4371337890625	-496.794921875	1391.676513671875	-248.8121337890625	-583.3682250976562	950.2645874023438	-511.6393432617188	-551.6414794921875	942.243408203125	-230.0732574462891	-537.2507934570312	902.7376708984376	-487.4846801757812	-846.3543701171875	112.740478515625	-353.8703918457031	-527.3555297851562	899.81298828125	-251.3505706787109	-684.9459838867188	832.9192504882812	-517.1646118164062	-670.453125	846.6568603515625	-205.6012573242188	-703.6212158203125	960.6875610351562	-368.9012756347656	-568.3800048828125	608.8768310546875	-516.3695678710938	-716.0032958984375	288.6271667480469	-450.0938110351562	-642.4259643554688	600.8021850585938	-495.9418029785156	-546.7223510742188	514.9313354492188	-485.9199523925781	-806.55712890625	156.7688598632812	-180.3643341064453	-664.8978881835938	369.728759765625	-475.3408813476562	-624.6490478515625	507.6288452148438	-471.4158325195312	-477.1947631835938	641.1420288085938	-189.3072052001953	-597.8551025390625	61.56937789916992	-400.017578125	-553.3749389648438	623.7060546875	-179.2924499511719	-450.6815490722656	544.4014282226562	-206.1100616455078	-531.9093627929688	523.5537109375	-188.0136566162109	-569.8050537109375	442.6969604492188	-473.5216369628906	-503.5641479492188	467.7433776855469	-193.5813446044922	-593.2844848632812	329.5965270996094	-463.8973388671875	-648.5620727539062	246.1366729736328	-442.4891662597656	-574.5115966796875	382.1533203125	-191.0791778564453	-669.3339233398438	60.04040908813477	-456.4646301269531	-618.9984741210938	455.3761901855469	-198.6331939697266	-837.9862670898438	84.73390197753906	-329.7773132324219	-665.5892944335938	334.3354797363281	-205.9775390625	-700.2854614257812	405.7733764648438	-211.0978240966797	-780.5433349609375	127.6581039428711	-418.4674987792969	-833.9478149414062	290.2127075195312	-227.9989013671875	-750.9144897460938	97.79283142089844	-231.8521118164062	-886.9010620117188	311.3627319335938	-287.6451110839844	-900.0951538085938	278.2187194824219	-314.9841918945312	-906.3610229492188	299.6249694824219	-260.56591796875	-852.5519409179688	87.13906860351562	-382.442626953125
134	0.665	-492.5260009765625	1377.165893554688	-559.6422119140625	-483.7037353515625	1395.02880859375	-247.9595031738281	-567.4695434570312	952.7928466796876	-511.7687072753906	-537.61865234375	946.111083984375	-229.6081848144531	-521.835205078125	904.9548950195312	-487.6020202636719	-844.392333984375	116.6699905395508	-354.1826477050781	-513.2276000976562	902.4415283203124	-252.6112976074219	-669.9754638671875	836.071044921875	-518.0659790039062	-655.4910278320312	850.4968872070312	-205.4805450439453	-688.0946655273438	963.88427734375	-369.4614868164062	-559.4366455078125	610.23388671875	-516.0459594726562	-713.2662963867188	291.4430847167969	-449.8016967773438	-634.0654907226562	604.1376342773438	-496.17041015625	-540.7591552734375	515.8529663085938	-485.8153686523438	-774.0535888671875	153.1103820800781	-180.5303497314453	-661.8490600585938	372.3683776855469	-474.3719787597656	-618.5703125	510.8300170898438	-471.3549194335938	-459.6021728515625	647.1429443359375	-189.4296569824219	-597.5401000976562	61.59333419799805	-400.0210266113281	-535.5330200195312	628.1583862304688	-179.95458984375	-430.7388305664062	551.5011596679688	-206.7980651855469	-511.8144836425781	528.67578125	-188.9594879150391	-565.4889526367188	444.3255615234375	-473.5879211425781	-482.1058044433594	473.158447265625	-194.5535278320312	-590.1007690429688	331.2962341308594	-463.9691772460938	-645.9605102539062	248.1734313964844	-442.5898132324219	-550.6422119140625	385.275390625	-192.0468139648438	-669.01904296875	60.35047149658203	-456.7183837890625	-597.0621337890625	456.7383422851562	-199.5843200683594	-836.5239868164062	88.5423583984375	-329.9702758789062	-640.3004150390625	334.2896728515625	-207.0169982910156	-676.939697265625	404.7034912109375	-212.1981964111328	-778.7564697265625	130.7996063232422	-418.8581848144531	-807.0419311523438	285.1380310058594	-228.3370819091797	-716.245849609375	96.42408752441406	-231.3481597900391	-860.7364501953125	303.9391784667969	-288.3923645019531	-872.7328491210938	270.3085327148438	-315.7410278320312	-879.6576538085938	291.4764099121094	-261.1585083007812	-850.9317016601562	90.7777862548828	-382.4899597167969
135	0.67	-474.4242553710938	1381.185791015625	-558.6314697265625	-470.3314514160156	1398.78564453125	-247.0237579345703	-551.2411499023438	955.7034912109376	-512.1454467773438	-522.05810546875	949.4963989257812	-231.4507751464844	-506.3744201660156	907.438720703125	-486.9913330078125	-842.4049682617188	121.5527496337891	-354.8804016113281	-498.4073791503906	906.1448974609376	-251.4943389892578	-654.7247924804688	839.313232421875	-518.5216064453125	-640.7116088867188	854.7178344726562	-205.2762145996094	-672.9046020507812	967.4776611328124	-370.6643981933594	-550.469970703125	612.1617431640625	-515.9624633789062	-710.4371948242188	294.8411254882812	-449.788330078125	-625.144287109375	607.8579711914062	-495.8650817871094	-534.2122802734375	517.1142578125	-485.7628173828125	-741.009033203125	149.6702575683594	-180.5066223144531	-658.2092895507812	375.1312866210938	-473.9457092285156	-612.4716186523438	514.0099487304688	-471.0558166503906	-442.2093505859375	653.209716796875	-189.4875793457031	-597.2091064453125	61.4794807434082	-399.7568359375	-517.4948120117188	633.1824951171875	-180.6765899658203	-411.4393615722656	558.2887573242188	-207.3937530517578	-491.9437866210938	533.8735961914062	-189.7586517333984	-560.9680786132812	446.3943786621094	-473.3540954589844	-461.0284423828125	479.0345153808594	-195.6480255126953	-587.046142578125	333.7290649414062	-464.4401550292969	-643.6434326171875	250.5456848144531	-442.8128051757812	-526.6263427734375	388.7528381347656	-192.7033233642578	-668.65478515625	60.75298690795898	-456.3147583007812	-575.5905151367188	458.4418029785156	-200.4906158447266	-835.6361694335938	92.76078033447266	-329.9879150390625	-614.7273559570312	334.6780395507812	-207.9411315917969	-653.7378540039062	403.6837463378906	-212.6589508056641	-776.9268188476562	133.8164825439453	-419.1805114746094	-779.7147216796875	279.7264099121094	-229.0697326660156	-681.2974243164062	95.29326629638672	-231.285888671875	-834.5903930664062	295.7101135253906	-289.4445495605469	-844.9882202148438	261.7794494628906	-316.0592651367188	-852.752197265625	283.1238098144531	-261.7034606933594	-849.3844604492188	95.39366912841795	-382.997314453125
